<?xml version="1.0" standalone="no"?>
<!DOCTYPE svg PUBLIC "-//W3C//DTD SVG 20010904//EN"
 "http://www.w3.org/TR/2001/REC-SVG-20010904/DTD/svg10.dtd">
<svg version="1.0" xmlns="http://www.w3.org/2000/svg"
 width="500.000000pt" height="200.000000pt" viewBox="0 0 500.000000 200.000000"
 preserveAspectRatio="xMidYMid meet">

<g transform="translate(0.000000,200.000000) scale(0.100000,-0.100000)"
fill="#000000" stroke="none">
<path d="M615 1428 c-53 -19 -87 -50 -111 -102 -32 -72 -147 -621 -139 -665
10 -50 52 -88 110 -97 98 -14 196 29 234 104 16 32 51 163 51 191 0 7 -27 11
-69 11 l-69 0 -17 -72 c-9 -40 -21 -78 -27 -85 -14 -18 -57 -16 -64 2 -6 16
102 539 117 567 6 11 21 18 41 18 l31 0 -6 -52 c-3 -29 -9 -68 -13 -85 l-6
-33 71 0 c69 0 71 1 77 28 3 15 10 44 16 65 15 61 12 135 -7 163 -9 14 -32 32
-50 40 -40 16 -126 17 -170 2z"/>
<path d="M1010 1424 c-45 -20 -77 -50 -100 -95 -22 -43 -140 -582 -140 -640 0
-58 22 -94 70 -113 108 -43 236 6 281 109 19 43 139 587 139 630 0 44 -29 92
-65 109 -42 20 -139 20 -185 0z m96 -138 c8 -22 -106 -549 -124 -569 -22 -24
-56 -18 -60 11 -5 32 98 522 115 550 15 25 60 30 69 8z"/>
<path d="M3225 1428 c-53 -19 -87 -50 -111 -102 -32 -72 -147 -621 -139 -665
10 -50 52 -88 110 -97 98 -14 196 29 234 105 24 46 143 586 143 647 0 55 -22
91 -67 110 -40 16 -126 17 -170 2z m85 -157 c0 -42 -110 -543 -122 -558 -14
-18 -57 -16 -64 2 -7 16 101 537 117 567 6 11 21 18 39 18 27 0 30 -3 30 -29z"/>
<path d="M4047 1425 c-79 -28 -116 -84 -143 -217 -24 -117 -15 -147 78 -245
l71 -75 -6 -51 c-10 -89 -25 -126 -53 -133 -41 -11 -49 7 -36 79 7 36 12 69
12 76 0 7 -24 11 -69 11 l-69 0 -16 -71 c-21 -92 -20 -144 1 -180 24 -41 88
-63 157 -56 120 12 172 65 205 206 37 158 26 204 -74 300 -30 30 -58 65 -61
77 -8 30 14 130 31 144 8 6 24 10 37 8 26 -3 28 -28 13 -121 l-8 -48 69 3 69
3 17 65 c32 128 17 199 -47 226 -43 18 -128 17 -178 -1z"/>
<path d="M1335 1418 c-9 -25 -175 -815 -175 -833 0 -17 9 -18 123 -13 98 5
132 10 164 26 48 25 87 69 102 114 23 72 121 553 121 597 0 55 -20 88 -66 107
-44 19 -263 20 -269 2z m183 -156 c6 -37 -98 -515 -116 -534 -13 -16 -72 -26
-72 -13 0 6 109 520 117 553 4 19 11 23 37 20 24 -2 32 -8 34 -26z"/>
<path d="M1690 1133 c-34 -164 -75 -354 -90 -423 -15 -69 -24 -128 -20 -133 3
-4 78 -6 166 -5 l159 3 16 65 15 65 -94 3 -94 3 6 37 c3 20 13 70 22 110 l16
72 82 0 83 0 15 70 15 70 -84 0 c-81 0 -83 1 -78 23 3 12 14 60 23 107 l19 85
95 3 96 3 12 52 c6 29 14 60 17 70 4 16 -9 17 -165 17 l-169 0 -63 -297z"/>
<path d="M2036 1013 c-49 -230 -89 -422 -90 -428 -1 -12 124 -19 135 -8 4 4
25 89 46 188 l38 180 8 -105 c4 -58 10 -142 13 -187 l6 -83 74 0 74 0 0 28 c0
27 -36 305 -44 347 -4 15 6 27 38 46 51 31 70 68 96 186 25 112 25 160 0 200
-25 42 -67 53 -200 53 l-106 0 -88 -417z m260 262 c7 -18 -14 -141 -29 -170
-13 -26 -27 -35 -53 -35 l-21 0 18 93 c11 50 22 100 25 110 7 21 52 23 60 2z"/>
<path d="M2705 1418 c-8 -22 -175 -819 -175 -834 0 -23 126 -20 138 4 5 9 24
90 42 180 l33 162 42 0 41 0 -37 -172 c-20 -95 -33 -177 -29 -181 4 -4 36 -7
71 -5 l64 3 87 410 c48 226 88 418 88 428 0 15 -10 17 -69 17 l-69 0 -10 -47
c-6 -27 -23 -108 -38 -180 l-27 -133 -42 0 -42 0 39 177 c21 98 38 179 38 180
0 2 -32 3 -70 3 -48 0 -72 -4 -75 -12z"/>
<path d="M3535 1418 c-18 -56 -147 -699 -147 -735 0 -56 24 -91 73 -109 116
-42 257 23 289 133 14 52 150 691 150 709 0 11 -16 14 -70 14 -38 0 -70 -2
-70 -5 0 -31 -145 -686 -156 -702 -16 -25 -59 -31 -67 -9 -4 10 40 230 139
689 l6 27 -72 0 c-48 0 -72 -4 -75 -12z"/>
<path d="M4365 1418 c-7 -24 -175 -823 -175 -835 0 -10 40 -13 165 -13 l165 0
6 27 c3 16 10 44 15 63 5 19 9 38 9 43 0 4 -43 7 -95 7 -52 0 -95 3 -94 8 0 4
10 52 22 107 l22 100 83 3 c80 3 82 3 88 30 3 15 10 43 15 62 5 19 9 38 9 43
0 4 -36 7 -80 7 -89 0 -89 0 -71 70 5 19 15 61 21 92 l11 57 97 3 97 3 11 50
c22 92 35 85 -151 85 -124 0 -167 -3 -170 -12z"/>
</g>
</svg>
