<?xml version="1.0" standalone="no"?>
<!DOCTYPE svg PUBLIC "-//W3C//DTD SVG 20010904//EN"
 "http://www.w3.org/TR/2001/REC-SVG-20010904/DTD/svg10.dtd">
<svg version="1.0" xmlns="http://www.w3.org/2000/svg"
 width="900.000000pt" height="800.000000pt" viewBox="0 0 900.000000 800.000000"
 preserveAspectRatio="xMidYMid meet">

<g transform="translate(0.000000,800.000000) scale(0.100000,-0.100000)"
fill="#000000" stroke="none">
<path d="M462 6878 c-17 -17 -17 -5409 0 -5426 9 -9 779 -12 3405 -12 3344 0
3392 0 3403 19 14 27 14 5385 0 5412 -11 19 -59 19 -3403 19 -2626 0 -3396 -3
-3405 -12z m6648 -963 l0 -805 -3245 0 -3245 0 0 805 0 805 3245 0 3245 0 0
-805z m0 -1765 l0 -810 -3245 0 -3245 0 0 810 0 810 3245 0 3245 0 0 -810z m0
-1750 l0 -790 -3245 0 -3245 0 0 790 0 790 3245 0 3245 0 0 -790z"/>
<path d="M2588 6539 c-106 -15 -168 -62 -212 -160 -41 -88 -48 -180 -44 -574
3 -347 4 -362 26 -417 27 -68 87 -132 150 -161 63 -29 234 -31 301 -4 140 57
180 153 181 430 l0 127 -134 0 -135 0 -3 -149 c-3 -130 -5 -152 -22 -170 -24
-26 -50 -27 -76 -1 -19 19 -20 33 -20 414 0 437 -1 430 64 424 46 -5 56 -34
56 -170 l0 -118 130 0 130 0 0 150 c0 126 -3 158 -21 204 -48 130 -198 201
-371 175z"/>
<path d="M5440 6230 l0 -310 800 0 800 0 0 310 0 310 -800 0 -800 0 0 -310z"/>
<path d="M1360 6005 c0 -512 -1 -526 -20 -545 -21 -21 -47 -25 -66 -12 -28 18
-34 56 -34 216 l0 166 -131 0 -131 0 4 -207 c4 -234 8 -251 77 -326 64 -69
125 -92 246 -92 84 0 107 4 141 22 61 32 101 70 131 120 50 86 53 117 53 671
l0 512 -135 0 -135 0 0 -525z"/>
<path d="M1730 5870 l0 -660 135 0 135 0 0 300 0 300 120 0 120 0 0 130 0 130
-120 0 -120 0 0 105 0 105 130 0 130 0 0 125 0 125 -265 0 -265 0 0 -660z"/>
<path d="M4360 5775 l0 -575 480 0 480 0 0 575 0 575 -480 0 -480 0 0 -575z"/>
<path d="M3280 5625 l0 -425 475 0 475 0 0 425 0 425 -475 0 -475 0 0 -425z"/>
<path d="M5440 5510 l0 -310 800 0 800 0 0 310 0 310 -800 0 -800 0 0 -310z"/>
<path d="M1000 4230 l0 -660 125 0 125 0 0 660 0 660 -125 0 -125 0 0 -660z"/>
<path d="M4400 4770 l0 -120 -35 0 -35 0 0 -100 0 -100 34 0 35 0 3 -392 c3
-374 4 -395 23 -428 34 -58 73 -72 191 -67 55 2 106 7 112 11 8 5 12 39 12 97
l0 89 -30 0 c-24 0 -33 6 -40 26 -6 14 -10 161 -10 345 l0 319 40 0 40 0 0 99
0 100 -37 3 -38 3 -3 118 -3 117 -129 0 -130 0 0 -120z"/>
<path d="M1722 4694 c-34 -17 -81 -76 -84 -104 -1 -8 -4 12 -7 45 l-6 60 -132
3 -133 3 0 -566 0 -565 135 0 135 0 0 438 c0 480 1 485 57 490 63 6 63 9 63
-485 l0 -443 135 0 135 0 0 454 c0 262 -4 476 -10 507 -12 63 -52 125 -98 152
-46 27 -147 33 -190 11z"/>
<path d="M3049 4697 c-67 -19 -136 -63 -164 -105 -52 -79 -55 -101 -55 -433 0
-190 4 -328 11 -361 37 -173 139 -245 337 -236 216 10 298 100 310 341 l5 108
-134 -3 -134 -3 -5 -105 c-3 -58 -9 -111 -13 -117 -5 -7 -23 -13 -42 -13 -58
0 -65 22 -65 192 l0 148 196 0 196 0 -4 198 c-3 162 -7 205 -22 240 -22 51
-100 123 -152 141 -58 19 -210 23 -265 8z m137 -195 c26 -17 34 -56 34 -156
l0 -106 -60 0 -60 0 0 106 c0 123 15 164 60 164 8 0 20 -4 26 -8z"/>
<path d="M3952 4694 c-34 -17 -81 -76 -84 -104 -1 -8 -4 12 -7 45 l-6 60 -132
3 -133 3 0 -566 0 -565 135 0 135 0 0 438 c0 480 1 485 57 490 63 6 63 9 63
-485 l0 -443 135 0 135 0 0 454 c0 262 -4 476 -10 507 -12 63 -52 125 -98 152
-46 27 -147 33 -190 11z"/>
<path d="M5057 4700 c-92 -24 -169 -89 -211 -179 -20 -43 -21 -64 -24 -370 -3
-301 -2 -329 17 -390 26 -83 66 -132 139 -168 53 -26 66 -28 178 -28 114 0
123 2 179 30 72 37 118 97 140 184 14 51 16 115 13 379 -3 299 -4 320 -24 363
-54 116 -151 179 -286 185 -46 2 -100 -1 -121 -6z m130 -208 c28 -18 33 -70
33 -365 0 -345 -2 -352 -65 -352 -63 0 -65 7 -65 352 0 345 5 373 65 373 11 0
25 -4 32 -8z"/>
<path d="M5965 4691 c-40 -18 -73 -48 -93 -86 -9 -17 -11 -10 -12 38 l0 57
-135 0 -135 0 0 -565 0 -565 135 0 135 0 0 434 c0 335 3 436 13 444 14 12 74
28 140 37 l47 6 0 110 0 109 -27 0 c-16 0 -46 -9 -68 -19z"/>
<path d="M2090 4696 c0 -8 170 -1072 176 -1098 l6 -28 154 0 c151 0 154 0 159
23 10 41 175 1069 175 1088 0 19 -7 19 -132 17 l-132 -3 -33 -295 c-17 -162
-33 -322 -34 -355 -2 -54 -3 -55 -6 -15 -2 25 -17 182 -33 350 -17 168 -30
308 -30 312 0 5 -61 8 -135 8 -74 0 -135 -2 -135 -4z"/>
<path d="M6080 4698 c0 -2 40 -255 89 -563 63 -397 86 -564 79 -572 -7 -8 -36
-13 -79 -13 l-69 0 0 -85 0 -85 163 0 c89 0 179 5 199 10 72 20 70 13 189 688
60 339 109 618 109 619 0 2 -58 3 -129 3 l-128 0 -13 -112 c-7 -62 -27 -246
-45 -408 -18 -162 -33 -290 -34 -284 -39 423 -71 773 -71 786 0 16 -12 18
-130 18 -71 0 -130 -1 -130 -2z"/>
<path d="M1405 3098 c-39 -14 -72 -44 -96 -88 l-18 -35 -1 63 0 62 -140 0
-140 0 0 -600 0 -600 140 0 140 0 0 450 c0 383 2 456 15 487 18 43 30 53 67
53 52 0 53 -5 56 -517 l3 -473 140 0 139 0 1 448 c1 486 4 517 52 540 37 18
63 2 77 -46 6 -23 10 -208 10 -489 l0 -453 145 0 145 0 0 473 c0 520 -5 577
-58 652 -37 54 -90 79 -179 83 -87 5 -146 -19 -188 -74 l-27 -36 -31 37 c-17
21 -49 46 -71 56 -45 21 -133 24 -181 7z"/>
<path d="M2455 3097 c-90 -24 -143 -64 -179 -134 -19 -38 -42 -183 -33 -207 5
-14 27 -16 142 -16 l135 0 0 53 c0 65 20 97 60 97 46 0 60 -30 60 -131 l0 -86
-42 -12 c-24 -7 -86 -29 -138 -49 -77 -29 -105 -46 -146 -87 -66 -66 -84 -127
-84 -286 0 -245 67 -349 224 -349 82 0 138 36 179 115 l16 30 1 -67 0 -68 140
0 140 0 0 483 c0 297 -4 496 -10 519 -20 72 -70 130 -142 167 -62 31 -76 35
-170 37 -62 2 -123 -2 -153 -9z m185 -749 c0 -127 -4 -191 -13 -208 -17 -33
-59 -38 -87 -10 -20 20 -21 29 -18 172 l3 150 44 39 c71 63 71 64 71 -143z"/>
<path d="M3435 3096 c-37 -16 -59 -41 -85 -92 l-19 -39 -1 68 0 67 -145 0
-145 0 0 -600 0 -600 145 0 145 0 0 458 c0 415 2 460 18 492 13 27 24 36 49
38 64 6 63 12 63 -515 l0 -473 145 0 145 0 0 468 c0 273 -4 493 -10 531 -24
144 -98 212 -230 211 -25 -1 -58 -7 -75 -14z"/>
<path d="M4050 3095 c-69 -20 -122 -54 -149 -98 -28 -46 -53 -147 -49 -204 l3
-48 135 0 135 0 5 56 c6 66 22 89 61 89 42 0 59 -40 59 -137 l0 -79 -87 -28
c-242 -78 -299 -133 -325 -315 -19 -139 14 -321 70 -385 29 -32 93 -56 155
-56 82 0 131 30 170 105 l16 30 1 -62 0 -63 145 0 146 0 -3 498 c-3 559 -1
538 -80 619 -63 64 -123 86 -248 90 -73 2 -122 -2 -160 -12z m200 -739 c0
-192 -8 -233 -48 -243 -62 -15 -85 45 -80 203 5 122 18 158 74 195 54 35 54
34 54 -155z"/>
<path d="M4790 3094 c-71 -31 -111 -88 -129 -189 -18 -95 -14 -617 4 -690 32
-123 105 -185 220 -185 77 0 141 30 167 80 l18 35 0 -53 c0 -64 -19 -112 -55
-140 -37 -29 -128 -29 -205 -1 -30 11 -62 22 -72 25 -12 5 -27 -13 -62 -72
-29 -51 -42 -82 -36 -90 18 -21 106 -63 155 -74 28 -6 104 -11 170 -11 161 0
237 22 305 91 38 37 53 62 69 115 20 64 21 88 21 616 l0 549 -145 0 -145 0 0
-62 0 -62 -22 44 c-41 80 -163 115 -258 74z m260 -236 c18 -31 20 -51 20 -284
0 -160 -4 -263 -11 -283 -21 -59 -88 -61 -109 -5 -6 14 -10 146 -10 292 0 297
3 312 61 312 22 0 34 -8 49 -32z"/>
<path d="M5707 3100 c-146 -37 -220 -127 -239 -293 -14 -127 -4 -615 15 -682
21 -73 51 -128 92 -163 64 -57 96 -66 240 -67 123 0 133 2 187 28 109 54 156
146 165 330 l6 107 -140 0 -140 0 -6 -106 c-5 -80 -10 -111 -23 -125 -23 -25
-66 -24 -90 2 -17 18 -19 41 -22 180 l-4 159 212 0 212 0 -4 208 c-3 199 -4
209 -29 262 -55 115 -137 162 -294 166 -55 2 -117 -1 -138 -6z m139 -208 c25
-17 37 -62 42 -164 l5 -108 -72 0 -71 0 0 99 c0 55 5 112 10 128 17 45 56 65
86 45z"/>
<path d="M6665 3091 c-44 -20 -66 -41 -89 -86 l-16 -30 0 63 0 62 -145 0 -145
0 0 -600 0 -600 145 0 145 0 0 466 0 465 35 15 c19 8 65 17 102 22 l68 7 3
118 3 117 -33 0 c-18 0 -51 -9 -73 -19z"/>
<path d="M7410 6460 l0 -430 475 0 475 0 0 430 0 430 -475 0 -475 0 0 -430z
m790 0 l0 -270 -320 0 -320 0 0 270 0 270 320 0 320 0 0 -270z"/>
<path d="M8016 6540 c-99 -107 -175 -180 -186 -180 -10 0 -54 29 -98 65 -84
69 -108 77 -137 45 -29 -32 -11 -61 102 -163 81 -73 115 -97 135 -97 25 0 44
24 195 250 91 138 164 252 162 255 -3 2 -80 -77 -173 -175z"/>
<path d="M7410 5460 l0 -430 475 0 475 0 0 430 0 430 -475 0 -475 0 0 -430z
m790 0 l0 -270 -320 0 -320 0 0 270 0 270 320 0 320 0 0 -270z"/>
<path d="M8012 5525 c-109 -117 -170 -175 -184 -175 -11 0 -55 29 -98 65 -82
68 -106 77 -133 47 -33 -36 -21 -57 95 -161 86 -78 118 -101 140 -101 25 0 42
21 186 238 184 275 176 262 165 262 -4 -1 -81 -79 -171 -175z"/>
<path d="M7410 4460 l0 -430 475 0 475 0 0 430 0 430 -475 0 -475 0 0 -430z
m790 0 l0 -270 -168 0 -169 0 164 246 c91 135 163 248 160 250 -3 3 -76 -71
-162 -163 -87 -92 -164 -172 -172 -177 -21 -12 -47 3 -123 68 -85 73 -140 75
-140 6 0 -26 12 -38 210 -217 12 -11 -7 -13 -113 -13 l-127 0 0 270 0 270 319
0 320 0 1 -270z"/>
<path d="M7410 3460 l0 -430 475 0 475 0 0 430 0 430 -475 0 -475 0 0 -430z
m790 0 l0 -270 -177 0 -176 0 20 23 c32 35 325 478 320 484 -3 2 -78 -75 -168
-171 -90 -97 -169 -178 -177 -181 -19 -7 -48 10 -117 70 -74 65 -97 73 -124
46 -12 -12 -21 -29 -21 -39 0 -17 59 -78 177 -185 l52 -47 -124 0 -125 0 0
270 0 270 320 0 320 0 0 -270z"/>
<path d="M7410 2465 l0 -425 475 0 475 0 0 425 0 425 -475 0 -475 0 0 -425z
m790 0 l0 -265 -320 0 -320 0 0 265 0 265 320 0 320 0 0 -265z"/>
<path d="M7410 1465 l0 -425 475 0 475 0 0 425 0 425 -475 0 -475 0 0 -425z
m790 0 l0 -265 -320 0 -320 0 0 265 0 265 320 0 320 0 0 -265z"/>
<path d="M440 1115 l0 -75 3425 0 3425 0 0 75 0 75 -3425 0 -3425 0 0 -75z"/>
</g>
</svg>
